<svg width="191" height="40" viewBox="0 0 191 40" fill="none" xmlns="http://www.w3.org/2000/svg">
<path d="M98.1949 32.4085H104.611L98.2897 23.7802L103.54 17.6283L109.707 32.1557L109.201 33.4515C108.948 34.1258 108.642 34.642 108.284 35.0002C107.926 35.3795 107.347 35.5691 106.546 35.5691C106.293 35.5691 106.009 35.5375 105.692 35.4743C105.397 35.4322 105.124 35.369 104.871 35.2847L104.302 39.6463C104.681 39.7516 105.124 39.8359 105.629 39.8991C106.156 39.9623 106.662 39.9939 107.146 39.9939C108.137 39.9939 108.99 39.878 109.707 39.6463C110.444 39.4145 111.076 39.0668 111.603 38.6033C112.151 38.1608 112.614 37.613 112.994 36.9598C113.394 36.3277 113.752 35.6007 114.068 34.779L121.117 16.6689H115.617L112.488 26.7828H112.393L108.885 16.6689H104.358L104.358 16.6689H98.0685L93.043 23.0533H92.9482V8.51465H87.7331V32.4085H92.9482V24.8548H93.043L98.1949 32.4085Z" fill="white"/>
<path d="M86.0433 24.4755C86.0433 25.5712 85.8747 26.6247 85.5376 27.6361C85.2005 28.6475 84.7053 29.5429 84.0521 30.3226C83.4199 31.0811 82.6403 31.6921 81.7132 32.1557C80.7861 32.6192 79.7325 32.851 78.5525 32.851C77.499 32.851 76.4981 32.6403 75.5499 32.2189C74.6227 31.7764 73.9063 31.1548 73.4006 30.3542H73.3374V32.4085H68.5648V8.51465H73.7483V18.344H73.8115C74.254 17.8172 74.8756 17.3326 75.6763 16.8901C76.477 16.4477 77.4568 16.2264 78.6157 16.2264C79.7536 16.2264 80.7755 16.4477 81.6816 16.8901C82.6087 17.3326 83.3883 17.9331 84.0205 18.6917C84.6737 19.4502 85.1689 20.3352 85.506 21.3465C85.8642 22.3369 86.0433 23.3798 86.0433 24.4755ZM81.0494 24.4755C81.0494 23.9698 80.9652 23.4747 80.7966 22.99C80.6491 22.5054 80.4173 22.084 80.1012 21.7258C79.7852 21.3465 79.3954 21.041 78.9318 20.8093C78.4682 20.5775 77.9309 20.4616 77.3198 20.4616C76.7299 20.4616 76.2031 20.5775 75.7395 20.8093C75.2759 21.041 74.8756 21.3465 74.5385 21.7258C74.2224 22.1051 73.9695 22.537 73.7799 23.0216C73.6113 23.5063 73.527 24.0014 73.527 24.5071C73.527 25.0128 73.6113 25.508 73.7799 25.9926C73.9695 26.4772 74.2224 26.9091 74.5385 27.2884C74.8756 27.6677 75.2759 27.9732 75.7395 28.205C76.2031 28.4368 76.7299 28.5526 77.3198 28.5526C77.9309 28.5526 78.4682 28.4368 78.9318 28.205C79.3954 27.9732 79.7852 27.6677 80.1012 27.2884C80.4173 26.9091 80.6491 26.4772 80.7966 25.9926C80.9652 25.4869 81.0494 24.9812 81.0494 24.4755Z" fill="white"/>
<path d="M61.0884 32.4086V30.2278H61.0252C60.8356 30.586 60.5827 30.9231 60.2666 31.2392C59.9716 31.5552 59.6134 31.8291 59.192 32.0609C58.7917 32.2927 58.3386 32.4823 57.8329 32.6298C57.3483 32.7773 56.832 32.8511 56.2842 32.8511C55.2306 32.8511 54.3351 32.6614 53.5976 32.2822C52.8812 31.9029 52.2912 31.4183 51.8276 30.8283C51.3851 30.2173 51.0585 29.5325 50.8478 28.7739C50.6582 27.9943 50.5634 27.2042 50.5634 26.4035V16.669H55.7785V25.2025C55.7785 25.645 55.8101 26.0664 55.8733 26.4667C55.9365 26.8671 56.0524 27.2253 56.221 27.5413C56.4106 27.8574 56.6529 28.1102 56.9479 28.2998C57.2429 28.4684 57.6327 28.5527 58.1174 28.5527C59.0234 28.5527 59.7083 28.2156 60.1718 27.5413C60.6565 26.8671 60.8988 26.0769 60.8988 25.1709V16.669H66.0823V32.4086H61.0884Z" fill="white"/>
<path d="M49.7638 16.9218C49.7638 18.2281 49.5215 19.3343 49.0369 20.2403C48.5522 21.1253 47.899 21.8417 47.0773 22.3895C46.2555 22.9374 45.3073 23.3377 44.2327 23.5905C43.158 23.8434 42.0413 23.9698 40.8823 23.9698H38.1958V32.4085H32.791V10.0317H41.0088C42.2309 10.0317 43.3687 10.1581 44.4223 10.411C45.4969 10.6428 46.4241 11.0326 47.2037 11.5804C48.0044 12.1072 48.626 12.813 49.0685 13.698C49.5321 14.5619 49.7638 15.6365 49.7638 16.9218ZM44.3591 16.9534C44.3591 16.4266 44.2537 15.9947 44.043 15.6575C43.8323 15.3204 43.5478 15.057 43.1896 14.8674C42.8314 14.6778 42.4205 14.5513 41.957 14.4881C41.5145 14.4249 41.0509 14.3933 40.5663 14.3933H38.1958V19.6714H40.4715C40.9772 19.6714 41.4618 19.6293 41.9254 19.545C42.3889 19.4607 42.7998 19.3132 43.158 19.1025C43.5373 18.8918 43.8323 18.6179 44.043 18.2808C44.2537 17.9226 44.3591 17.4801 44.3591 16.9534Z" fill="white"/>
<path d="M187.929 23.8812C187.865 22.4912 187.413 21.3434 186.57 20.4378C185.749 19.5111 184.569 19.0478 183.032 19.0478C182.316 19.0478 181.652 19.1846 181.042 19.4584C180.431 19.7112 179.894 20.0692 179.43 20.5325C178.967 20.9748 178.598 21.4908 178.325 22.0805C178.051 22.6491 177.893 23.2493 177.851 23.8812H187.929ZM190.108 24.5762C190.108 24.7236 190.108 24.8815 190.108 25.05C190.108 25.2185 190.098 25.3975 190.077 25.5871H177.819C177.84 26.3242 177.988 27.0192 178.261 27.6721C178.535 28.3249 178.914 28.8936 179.399 29.378C179.883 29.8624 180.452 30.252 181.105 30.5468C181.758 30.8206 182.463 30.9575 183.221 30.9575C184.338 30.9575 185.296 30.7048 186.096 30.1993C186.918 29.6728 187.539 29.0726 187.96 28.3987L189.571 29.6623C188.687 30.7785 187.707 31.5788 186.633 32.0632C185.58 32.5476 184.443 32.7898 183.221 32.7898C182.126 32.7898 181.105 32.6003 180.157 32.2212C179.23 31.821 178.43 31.2734 177.756 30.5784C177.082 29.8834 176.545 29.0621 176.145 28.1143C175.766 27.1666 175.576 26.1346 175.576 25.0184C175.576 23.9022 175.766 22.8703 176.145 21.9225C176.524 20.9748 177.05 20.1534 177.724 19.4584C178.398 18.7634 179.188 18.2264 180.094 17.8473C180.999 17.4471 181.979 17.2471 183.032 17.2471C184.19 17.2471 185.212 17.4471 186.096 17.8473C186.981 18.2264 187.718 18.7529 188.308 19.4268C188.897 20.0797 189.34 20.8484 189.635 21.733C189.951 22.6175 190.108 23.5653 190.108 24.5762Z" fill="white"/>
<path d="M167.085 20.88C167.085 20.4799 167.075 19.9639 167.054 19.3321C167.033 18.7003 167.001 18.1316 166.959 17.6262H169.012C169.055 18.0263 169.086 18.4686 169.107 18.953C169.128 19.4374 169.139 19.8375 169.139 20.1534H169.202C169.623 19.2899 170.255 18.5949 171.098 18.0684C171.94 17.5209 172.888 17.2471 173.941 17.2471C174.215 17.2471 174.457 17.2576 174.667 17.2787C174.899 17.2997 175.131 17.3418 175.362 17.405L175.078 19.4268C174.952 19.3847 174.741 19.3426 174.446 19.3005C174.151 19.2584 173.857 19.2373 173.562 19.2373C172.993 19.2373 172.445 19.3426 171.919 19.5532C171.392 19.7638 170.929 20.1008 170.529 20.5641C170.15 21.0064 169.834 21.5856 169.581 22.3016C169.349 22.9966 169.234 23.839 169.234 24.8289V32.4107H167.085V20.88Z" fill="white"/>
<path d="M163.725 25.0184C163.725 26.1346 163.525 27.1666 163.125 28.1143C162.746 29.0621 162.209 29.8834 161.514 30.5784C160.819 31.2734 159.987 31.821 159.018 32.2212C158.049 32.6003 156.986 32.7898 155.827 32.7898C154.69 32.7898 153.637 32.6003 152.668 32.2212C151.699 31.821 150.867 31.2734 150.172 30.5784C149.477 29.8834 148.93 29.0621 148.53 28.1143C148.15 27.1666 147.961 26.1346 147.961 25.0184C147.961 23.9022 148.15 22.8703 148.53 21.9225C148.93 20.9748 149.477 20.1534 150.172 19.4584C150.867 18.7634 151.699 18.2264 152.668 17.8473C153.637 17.4471 154.69 17.2471 155.827 17.2471C156.986 17.2471 158.049 17.4471 159.018 17.8473C159.987 18.2264 160.819 18.7634 161.514 19.4584C162.209 20.1534 162.746 20.9748 163.125 21.9225C163.525 22.8703 163.725 23.9022 163.725 25.0184ZM161.451 25.0184C161.451 24.1971 161.314 23.4284 161.04 22.7123C160.787 21.9752 160.419 21.3434 159.934 20.8168C159.45 20.2693 158.86 19.8375 158.165 19.5216C157.47 19.2057 156.691 19.0478 155.827 19.0478C154.964 19.0478 154.185 19.2057 153.49 19.5216C152.816 19.8375 152.236 20.2693 151.752 20.8168C151.268 21.3434 150.888 21.9752 150.615 22.7123C150.362 23.4284 150.236 24.1971 150.236 25.0184C150.236 25.8398 150.362 26.619 150.615 27.3562C150.888 28.0722 151.268 28.704 151.752 29.2516C152.236 29.7781 152.816 30.1993 153.49 30.5153C154.185 30.8101 154.964 30.9575 155.827 30.9575C156.691 30.9575 157.47 30.8101 158.165 30.5153C158.86 30.1993 159.45 29.7781 159.934 29.2516C160.419 28.704 160.787 28.0722 161.04 27.3562C161.314 26.619 161.451 25.8398 161.451 25.0184Z" fill="white"/>
<path d="M146.887 28.8092C146.508 29.3779 146.044 29.9149 145.497 30.4204C144.97 30.9258 144.349 31.3681 143.633 31.7472C142.938 32.1263 142.158 32.4211 141.295 32.6317C140.453 32.8634 139.526 32.9792 138.515 32.9792C136.83 32.9792 135.271 32.6844 133.839 32.0947C132.407 31.505 131.175 30.6941 130.143 29.6622C129.111 28.6091 128.3 27.3666 127.71 25.9345C127.142 24.5023 126.857 22.9333 126.857 21.2274C126.857 19.5215 127.152 17.9525 127.742 16.5204C128.332 15.0882 129.143 13.8562 130.175 12.8242C131.228 11.7712 132.46 10.9498 133.871 10.3601C135.303 9.77043 136.851 9.47559 138.515 9.47559C139.336 9.47559 140.137 9.55983 140.916 9.72831C141.716 9.8968 142.464 10.139 143.159 10.4549C143.854 10.7498 144.486 11.1183 145.054 11.5606C145.623 11.9818 146.097 12.4662 146.476 13.0138L144.581 14.4038C144.349 14.0457 144.033 13.6877 143.633 13.3297C143.254 12.9716 142.801 12.6557 142.274 12.3819C141.748 12.1082 141.169 11.887 140.537 11.7185C139.926 11.5501 139.263 11.4658 138.546 11.4658C137.093 11.4658 135.787 11.7291 134.629 12.2556C133.492 12.7821 132.523 13.4982 131.723 14.4038C130.922 15.2883 130.311 16.3203 129.89 17.4997C129.469 18.6791 129.258 19.9216 129.258 21.2274C129.258 22.5332 129.469 23.7757 129.89 24.9551C130.333 26.1345 130.954 27.177 131.754 28.0826C132.555 28.9672 133.523 29.6727 134.661 30.1992C135.819 30.7257 137.114 30.989 138.546 30.989C139.831 30.989 141.053 30.7257 142.211 30.1992C143.37 29.6727 144.338 28.8303 145.118 27.6719L146.887 28.8092Z" fill="white"/>
<path fill-rule="evenodd" clip-rule="evenodd" d="M10.6111 0L8.04619 3.36072L4.74303 1.28171L3.83377 4.78263L0 3.97795L3.48718 9.67013C5.38825 8.00196 7.88021 6.9905 10.6078 6.98968V6.98973H10.6145V6.98968C13.3421 6.99051 15.834 8.00197 17.7351 9.67014L21.2222 3.97795L17.3885 4.78263L16.4792 1.28171L13.176 3.36072L10.6145 0.00440716V0.00436059L10.6138 0.00351127L10.6111 0ZM10.6111 9.66348C6.12227 9.66348 2.4831 13.2997 2.4831 17.7855C2.4831 19.7267 3.16527 21.5069 4.29883 22.9017L1.18936 32.4037H20.0329L16.9234 22.9017C18.057 21.5069 18.7391 19.7267 18.7391 17.7855C18.7391 13.2997 15.1 9.66348 10.6111 9.66348ZM14.9111 17.7856C14.9111 15.4128 12.986 13.489 10.6111 13.489H10.6111C8.23619 13.489 6.31118 15.4128 6.31118 17.7856C6.31118 19.43 7.23569 20.859 8.59467 21.5814L8.73424 21.6556L6.46879 28.5784H14.7534L12.488 21.6556L12.6276 21.5814C13.9865 20.859 14.9111 19.43 14.9111 17.7856Z" fill="white"/>
</svg>
